<svg width="128" height="128" viewBox="0 0 128 128" fill="none" xmlns="http://www.w3.org/2000/svg">
<g clip-path="url(#clip0_18_3)">
<path d="M57.2726 0.00401829C72.271 -0.0420866 87.5621 0.239932 101.139 7.93371C101.391 8.07587 101.643 8.21888 101.903 8.36535C105.689 10.5426 108.796 13.1431 111.839 16.3839C112.347 16.9187 112.872 17.4357 113.399 17.9493C122.988 27.4973 127.114 42.9525 127.785 56.5392C127.973 63.1946 127.83 69.8683 126.9 76.4591C126.85 76.8128 126.801 77.1669 126.749 77.5314C124.964 89.6021 119.885 100.376 112.007 109.214C111.8 109.448 111.593 109.682 111.38 109.923C109.713 111.767 107.958 113.32 105.994 114.789C105.551 115.122 105.551 115.123 105.098 115.462C100.627 118.74 95.781 121.091 90.673 123.005C90.4036 123.106 90.1341 123.208 89.8566 123.313C77.8959 127.717 65.5071 127.942 53.0139 127.877C51.1467 127.869 49.2794 127.868 47.4123 127.866C43.8948 127.862 40.3765 127.852 36.8586 127.839C32.8459 127.824 28.8331 127.817 24.8205 127.811C16.5829 127.797 8.34517 127.775 0.107603 127.746C0.0719768 125.987 0.0511687 124.226 0.0324078 122.466C0.022292 121.975 0.01158 121.484 0.00115775 120.978C-0.0362802 116.268 0.754168 112.062 2.8244 107.894C3.03744 107.455 3.03775 107.455 3.25506 107.007C6.49082 100.431 10.7579 94.905 15.8058 89.8194C16.0408 89.5804 16.2757 89.3418 16.5178 89.0958C21.4494 84.287 27.1249 80.3262 32.7111 76.4591C32.9502 76.2923 33.1894 76.1257 33.4357 75.9542C36.0271 74.1571 38.6857 72.5588 41.4406 71.0724C41.8612 70.8453 41.8615 70.8448 42.2902 70.6134C44.2807 69.5637 44.2812 69.5636 45.1896 69.5636C44.5605 71.2737 43.4501 72.3289 42.1955 73.5235C41.9798 73.7326 41.7638 73.9413 41.5412 74.1564C40.1897 75.4535 38.8056 76.6963 37.3908 77.9142C35.3381 79.6824 33.4152 81.5729 31.4973 83.504C30.3074 84.7017 29.1107 85.8716 27.8556 86.9913C21.843 92.6057 14.4295 101.153 13.1652 109.909C13.0902 112.06 13.2171 113.556 14.0695 115.517C15.8906 117.519 17.4959 118.217 20.0656 118.324C20.6525 118.329 21.2394 118.333 21.8264 118.334C22.1479 118.336 22.4697 118.338 22.801 118.34C23.8647 118.346 24.9286 118.349 25.9924 118.352C26.7355 118.354 27.4788 118.357 28.2219 118.359C29.782 118.364 31.3425 118.366 32.9025 118.367C34.8891 118.369 36.876 118.38 38.8625 118.393C40.3994 118.401 41.9367 118.403 43.4738 118.403C44.205 118.405 44.9369 118.408 45.6681 118.414C53.8327 118.473 61.3716 116.894 67.6291 110.857C70.9884 107.085 71.9137 101.831 71.9045 96.8058C71.6863 88.391 66.4034 81.258 60.9142 75.6661C60.1136 74.9055 59.2982 74.1704 58.4719 73.4425C58.1705 73.1733 57.8693 72.9035 57.5588 72.6261C53.8794 69.3994 49.9389 66.6033 45.9435 63.8536C16.095 43.2992 16.0948 43.2984 12.7736 28.7569C11.8763 21.959 12.3505 15.7435 16.2082 10.089C23.205 1.20547 33.6083 -0.035675 43.7883 0.00499485C44.5742 0.00412026 45.3601 0.00270396 46.1457 0.0010886C47.7863 -0.000804767 49.4273 0.00183935 51.0676 0.00792454C53.136 0.0152349 55.2042 0.0114885 57.2726 0.00401829ZM63.8508 9.463C63.1331 9.47111 62.4151 9.47558 61.6974 9.47765C60.1858 9.4792 58.6745 9.48292 57.1633 9.49425C55.2143 9.51141 53.2646 9.52662 51.3156 9.53136C49.4142 9.53546 47.5125 9.54095 45.6115 9.54992C45.0626 9.55259 45.0624 9.55315 44.5246 9.55578C43.4822 9.56009 42.4396 9.56491 41.3976 9.57335C40.9122 9.57771 40.9115 9.57792 40.4357 9.58214C35.9072 9.60005 31.9165 10.2215 28.5148 13.6515C25.9929 16.6264 25.6527 19.1891 25.7189 23.17C26.6306 32.7662 34.017 40.424 40.6359 46.2101C41.9988 47.3577 43.3399 48.5196 44.6564 49.7267C48.7995 53.527 53.0943 57.0842 57.4914 60.5402C63.8792 65.5597 70.3534 70.5373 75.5969 76.9523L76.5851 78.1837C79.1343 81.2561 81.03 84.4993 82.6848 88.1915L83.0256 88.9581C85.4829 94.2945 85.4956 101.797 83.8703 107.463L83.4533 108.782C83.05 110.07 82.6328 111.343 82.1691 112.608L81.8185 113.524C91.5543 109.669 99.6968 103.925 104.964 94.0372L105.567 92.837C111.824 80.3672 113.574 64.6442 111.456 50.7521L111.202 49.3077C110.413 44.5481 109.378 40.246 107.503 35.84C103.756 27.2914 98.0295 19.099 89.466 15.6915C90.265 17.3791 90.3754 18.8153 90.381 20.6671L90.3713 21.6984C90.3834 23.0072 90.3794 24.3002 90.2707 25.6046C87.5938 36.5647 79.0503 44.0832 70.8781 50.462C70.5082 50.7499 70.5083 50.7501 70.1457 51.0323C67.735 52.9062 65.3187 54.7735 62.8996 56.6349L63.7053 55.3419C64.0639 54.4295 64.0636 54.4288 64.5099 53.6173C65.7174 53.1863 65.7175 53.1866 66.634 52.2101C67.1853 51.5482 67.7367 50.8859 68.2892 50.2257C68.4957 49.9796 68.6966 49.7398 68.8967 49.5011C69.5112 48.7651 70.1291 48.0335 70.759 47.3126C76.8019 40.4774 82.7119 33.1158 83.5519 23.2892C83.6272 19.4204 82.6969 16.7937 80.2082 13.9679C75.4452 9.87138 69.6937 9.40146 63.8508 9.463Z" fill="#E5E7EB"/>
<path d="M76.988 26.0351C77.3905 26.4661 77.3905 26.4661 77.3905 27.8668C76.4027 35.1006 69.6119 42.0531 64.4021 46.2455C64.1139 46.4739 63.8257 46.7023 63.5287 46.9376C62.9498 47.3988 62.3718 47.8612 61.7946 48.3245C61.5125 48.5512 61.2303 48.7779 60.9393 49.0115C59.7539 50.0174 58.6562 51.1177 57.5634 52.2365C57.3319 52.4076 57.1005 52.5791 56.8622 52.7558C55.6546 52.3248 55.6546 52.3248 54.9724 51.3431C53.7821 49.8377 52.4796 49.1279 50.8748 48.2034C47.3914 46.1024 44.4752 43.6092 41.5666 40.6883C41.3665 40.4902 41.1665 40.2921 40.9604 40.088C36.3347 35.4733 36.3347 35.4733 35.7049 32.1765C35.9313 31.2068 35.9313 31.2068 36.7222 30.5655C38.3131 29.717 39.8904 29.2906 41.6169 28.8634C41.9836 28.7716 42.3507 28.6797 42.7287 28.585C47.0827 27.5372 51.4866 26.866 55.9066 26.2308C57.2265 26.0406 58.5451 25.8413 59.8638 25.6412C72.8417 23.723 72.8417 23.723 76.988 26.0351Z" fill="#F3F4F6"/>
<path d="M56.0572 95.8534C59.5059 97.2847 62.3924 99.5038 65.315 101.887C65.7135 102.172 66.112 102.456 66.5226 102.749C66.3012 105.236 65.5686 106.87 63.8434 108.582C60.1145 111.781 55.585 113.673 50.8055 113.621C50.4952 113.621 50.1845 113.621 49.8645 113.622C48.8473 113.621 47.8305 113.614 46.8134 113.608C46.1046 113.606 45.3957 113.604 44.6865 113.604C42.8277 113.601 40.9693 113.592 39.1104 113.583C37.2108 113.574 35.3112 113.57 33.4117 113.565C29.6897 113.556 25.9677 113.542 22.2458 113.523C22.5528 111.884 22.5528 111.884 23.4124 111.126C26.6798 109.096 29.9771 107.841 33.5917 106.708C40.0934 104.577 45.7427 101.137 51.227 96.877C52.8262 95.7483 54.1746 95.3281 56.0572 95.8534Z" fill="#F3F4F6"/>
<path d="M51.0257 87.0452C52.032 87.2339 52.032 87.2339 52.7614 87.7455C53.4215 88.8242 53.4416 89.4147 53.2395 90.6817C52.5855 91.6782 52.5855 91.6782 51.6295 92.4057C50.3716 92.594 50.3716 92.594 49.2144 92.4057C48.4094 91.1127 48.4094 91.1127 48.4846 90.062C48.9733 88.4118 49.3476 87.3598 51.0257 87.0452Z" fill="white"/>
<path d="M53.6421 74.7356C54.6987 74.8972 54.6987 74.8972 55.6546 75.1666C55.9062 76.163 55.9062 76.163 56.0572 77.3215C55.6587 77.9615 55.6587 77.9615 55.2521 78.6144C54.588 78.4722 53.9238 78.3299 53.2395 78.1834C52.988 76.9444 52.988 76.9444 52.837 75.5975C53.1027 75.3131 53.3684 75.0287 53.6421 74.7356Z" fill="white"/>
<path d="M58.4722 90.6818C59.2692 90.6818 60.0662 90.6818 60.8873 90.6818C61.0202 91.3929 61.153 92.104 61.2899 92.8366C60.1326 93.106 60.1326 93.106 58.8748 93.2676C58.6091 92.9832 58.3434 92.6987 58.0697 92.4057C58.2207 91.4898 58.2207 91.4898 58.4722 90.6818Z" fill="white"/>
<path d="M58.0697 81.2003C58.8667 81.4136 58.8667 81.4136 59.6798 81.6312C59.547 82.2001 59.4141 82.769 59.2773 83.3551C58.746 83.2129 58.2146 83.0707 57.6672 82.9242C57.8001 82.3553 57.9329 81.7864 58.0697 81.2003Z" fill="white"/>
</g>
<defs>
<clipPath id="clip0_18_3">
<rect width="128" height="128" fill="white"/>
</clipPath>
</defs>
</svg>
