<svg width="500" height="83" viewBox="0 0 500 83" fill="none" xmlns="http://www.w3.org/2000/svg">
<path d="M24.1853 82.0403V1.42267H52.1643V82.0403H24.1853ZM-8.72643e-07 26.3193V1.42267H76.3496V26.3193H-8.72643e-07ZM61.8192 82.0403L85.8859 18.2575C88.0989 12.4088 90.9838 7.90369 94.5405 4.74222C98.0971 1.58074 102.523 2.79968e-06 107.819 2.79968e-06C112.956 2.79968e-06 117.303 1.58074 120.86 4.74222C124.495 7.82465 127.42 12.3298 129.633 18.2575L153.818 82.0403H123.468L105.329 26.675H109.597L91.8137 82.0403H61.8192ZM84.5818 74.2156V50.5046H132.241V74.2156H84.5818ZM158.107 82.0403V19.9173C158.107 13.5153 159.728 8.61502 162.968 5.21644C166.288 1.73882 170.595 2.79968e-06 175.891 2.79968e-06C179.447 2.79968e-06 182.806 0.908927 185.968 2.72678C189.129 4.54462 192.212 7.74562 195.215 12.3298L221.653 52.1643L209.798 52.7571V1.42267H236.591V82.0403H209.205L174.349 31.0615L184.901 30.3502V82.0403H158.107ZM273.614 1.42267V82.0403H245.635V1.42267H273.614ZM258.913 82.0403V57.1437H277.882C281.992 57.1437 285.39 56.6299 288.077 55.6024C290.765 54.4959 292.78 52.7966 294.124 50.5046C295.467 48.1335 296.139 45.0905 296.139 41.3758C296.139 35.5271 294.558 31.5752 291.397 29.5203C288.235 27.3863 283.73 26.3193 277.882 26.3193H258.913V1.42267H278.83C294.084 1.42267 305.624 4.97933 313.448 12.0926C321.352 19.206 325.304 28.967 325.304 41.3758C325.304 48.9633 323.723 55.8396 320.562 62.0044C317.4 68.1693 312.5 73.0696 305.861 76.7053C299.222 80.262 290.607 82.0403 280.016 82.0403H258.913ZM331.657 82.0403V1.42267H359.636V82.0403H331.657ZM355.605 82.0403V58.3292H396.151V82.0403H355.605ZM343.749 53.1128V29.4017H378.605C382.477 29.4017 385.56 30.4292 387.852 32.4842C390.223 34.4601 391.408 37.3844 391.408 41.2573C391.408 45.051 390.223 47.9754 387.852 50.0303C385.56 52.0853 382.477 53.1128 378.605 53.1128H343.749ZM355.605 25.1337V1.42267H396.151V25.1337H355.605ZM463.775 11.9741C467.489 7.46899 470.73 4.34703 473.496 2.60822C476.262 0.869409 479.345 2.79968e-06 482.743 2.79968e-06C488.118 2.79968e-06 492.228 1.77833 495.073 5.33499C497.918 8.81261 499.341 13.8315 499.341 20.3915V82.0403H472.548V36.7522L478.594 36.2779L451.563 71.9631L424.533 36.2779L430.579 36.7522V82.0403H403.786V20.3915C403.786 13.8315 405.208 8.81261 408.054 5.33499C410.978 1.77833 415.127 2.79968e-06 420.502 2.79968e-06C423.9 2.79968e-06 426.943 0.869409 429.631 2.60822C432.397 4.34703 435.637 7.46899 439.352 11.9741L454.527 30.3502H448.599L463.775 11.9741Z" fill="white"/>
</svg>
