<?xml version="1.0" encoding="UTF-8"?>
<svg id="Layer_2" xmlns="http://www.w3.org/2000/svg" viewBox="0 0 785 785">
  <defs>
    <style>
      .cls-1 {
        fill: #cca079;
      }

      .cls-2 {
        fill: #a9433b;
      }

      .cls-3 {
        fill: #2d2040;
      }

      .cls-4 {
        fill: #523313;
      }

      .cls-5 {
        fill: #ab4740;
      }

      .cls-6 {
        fill: #a2332b;
      }

      .cls-7 {
        fill: #794a48;
      }

      .cls-8 {
        fill: #97635f;
      }

      .cls-9 {
        fill: #492807;
      }
    </style>
  </defs>
  <g id="Logo_2">
    <g>
      <path class="cls-1" d="M392.5,0C175.73,0,0,175.73,0,392.5s175.73,392.5,392.5,392.5,392.5-175.73,392.5-392.5S609.27,0,392.5,0ZM607.48,530.61s-16.16-9.41-18.8-17.18c-2.64-7.77-1.29-8.95-5.89-19.91-1.28-3.06-2.56-5.64-3.73-7.77-.03.05-.05.11-.08.16-.39.71-2.89,2.43-6.75,4.75,4.4,8.48.89,40.09.89,40.09-9.18-5.43-16.97-22.77-19.76-29.6-2.11,1.11-4.26,2.23-6.44,3.35,2.35,5.53,3.55,9.07,3.55,10.56,0,.9-.66,2.36-1.96,4.38l1.96,8.75v1.35h-3.92v18.52c0,4.04.65,9.32,1.96,15.82-1.46,2.85-2.93,4.63-4.39,5.35v5.45l.47.64v1.68c0,.98-.16,1.94-.47,2.86v5.55c.31.93.47,1.94.47,3.03-.14.73-.3,1.45-.47,2.16v3h-.83c-2.55,8.22-7.35,15.59-14.4,22.11,0,4.49-9.81,11.67-29.42,21.55h-13.73c-3.6,0-7.19-1.24-10.79-3.7h-2.45l1.47,2.02-3.92,1.68-3.92-1.68-7.85,1.68-9.81-1.68c-8.5,1.12-17,1.68-25.5,1.68l-11.77-1.68c-2.29,1.12-4.9,1.68-7.85,1.68-6.54,0-9.81-1.01-9.81-3.03l-3.92,1.35h-3.92c-1.31,0-1.96-.45-1.96-1.35l-3.92,1.35-3.92-1.35c-1.31,0-1.96.45-1.96,1.35l-9.81-1.35h-9.81c-4.9,2.91-9.49,4.38-13.73,4.38-6.54,0-27.46-.45-62.76-1.35l-3.92,1.35c-9.16-1.13-13.73-2.58-13.73-4.38l-3.92,1.35c-1.31,0-2.45-.67-3.43-2.02h-42.66v-51.51h42.17v-9.43c0-2.24-.66-4.15-1.96-5.72.98-1.79,2.28-8.97,3.92-21.55l-1.96-7.41c0-1.81,1.26-4.31,3.77-7.5v-4.15c-.51.13-1.11.2-1.81.2l-1.96-2.69v-10.1l1.96-8.75c-2.62-3.81-3.92-7.18-3.92-10.1,0-.89.65-1.35,1.96-1.35l-1.96-7.07c1.52-8.16,3.43-13.16,5.73-15v-7.35l-1.81.81-1.96-3.03v-14.14c0-2.24-.66-4.15-1.96-5.72,1.3-2.91,2.61-4.38,3.92-4.38.64.22,1.24.41,1.81.58v-3.26c-1.05-.23-2.31-.35-3.77-.35,0-2.8,1.26-5.28,3.77-7.43v-10.94c-2.51-2.94-3.77-5.35-3.77-7.22v-3.03c0-4.04.65-9.31,1.96-15.82-1.31-1.79-1.96-3.25-1.96-4.38,1.26,0,2.51-.56,3.77-1.66v-2.7c-1.2-.44-1.81-1.33-1.81-2.7v-3.03c0-.86.6-1.3,1.81-1.34v-.22l-1.81-2.48,1.81-6.83v-1.2c-1.2-4.84-1.81-8.45-1.81-10.82h1.81v-.19c-2.51-3.06-3.77-5.8-3.77-8.22,0-4.83,1.25-7.3,3.77-7.4v-.89c-2.52-14.47-3.77-22.72-3.77-24.7,1.3-10.1,1.96-18.29,1.96-24.58l-1.96-3.03c1.3-1.79,1.96-3.14,1.96-4.04l-3.92-5.72c1.19-9.82,2.56-16.82,4.1-21.03-31.89,8.31-60.29,3.46-73.27-15.42-11.16-16.24,4.11-20.99,28.4-28.01l-6.9-17.66-20.14-51.53c-1.85-3.96-1.46-8.34.59-11.78.53-.89,1.17-1.67,1.9-2.36,2.19-2.07,5.19-3.25,8.28-3.42l13.19-.77c7-.41,13.65-2.5,19.46-5.95.4-.24.78-.5,1.17-.75.42-.27.86-.53,1.27-.81,6.37-4.37,11.56-10.46,14.86-17.76l5.45-12.04c1.27-2.81,3.45-5.19,6.16-6.5.91-.44,1.87-.75,2.89-.93,3.95-.67,8.17.53,11.21,3.68l61.23,55.82c1,.91,1.22,2.38.55,3.55l-9.59,16.59c-2.48,4.69-5.18,9.11-8.09,13.28,0,0,0,0,0,0,2.91-4.17,5.61-8.59,8.09-13.28l9.59-16.59c.67-1.17.44-2.65-.55-3.55l-6.34-5.77c15.25-20.16,25.16-32.71,36.32-16.47,9.82,14.29,8.97,33.94-.33,54.27,2.73.09,5.45.16,8.18.16h7.85c1.63,1.13,3.43,2.02,5.39,2.69h94.63s46.13,8.88,57.19,30.89c3.72,5.27,5.58,13.27,5.58,23.99,1.3,0,1.96.45,1.96,1.35s-.66,1.35-1.96,1.35l1.96,7.41v7.07l-1.96,7.07c2.94,0,4.9,2.47,5.88,7.41-2.62.23-3.92,1.13-3.92,2.69v4.38c0,2.92.65,4.38,1.96,4.38-1.64,10.33-2.94,16.5-3.92,18.52,2.61.23,3.92,1.24,3.92,3.03v1.35l-1.96,8.75c1.3,1.57,1.96,3.48,1.96,5.72l-3.92,1.35c2.61,3.15,3.92,5.5,3.92,7.07-1.31,0-1.96.56-1.96,1.68l3.92,1.35c-1.31,4.71-2.62,7.07-3.92,7.07l1.96,3.03c-1.31,1.57-1.96,3.48-1.96,5.72h-.55v1.83l2.51.86c0,3.14-.84,6.37-2.51,9.69v3.97h-2.36c-5.64,8.23-16.19,16.99-31.64,26.29v5.63l3.16,1.9c26.15,6.51,39.23,17.06,39.23,31.65,0,.9.65,1.35,1.96,1.35-2.62,3.15-3.92,6.06-3.92,8.75l1.96,7.07h-1.96l6.75,8.69c3.32-.95,5.22-1.48,5.22-1.48.56.51.84,1.16.89,1.92.53,1.16,1.27,2.78,2.13,4.69,3.05.88,14.41,4.99,12.05,17.16,0,0,25.25,10.24,29.86,30.13,4.61,19.9,4.03,36.26,4.03,36.26Z"/>
      <path class="cls-1" d="M441.96,417.74c-.1-.42-.22-.87-.35-1.35h0c.1.44.18.89.27,1.35h.09Z"/>
      <path class="cls-1" d="M440.4,521.96c-.28-1.73-.58-3.59-.92-5.59-2.1-12.35-9.29-22.17-9.29-22.17.73-3.48,5.35-7.44,12.4-11.6v-55.42c0-3.54-.24-6.68-.73-9.43h-1.23v-1.35h.97s0-.04-.01-.06c-.39-1.39-.87-2.94-1.31-4.3-3.17-7.74-9.58-10.11-19.26-7.1l-50.99,13.47v156.21h48.05c16.34,0,24.52-10.99,24.52-32.99v-10.21c-.95-2.34-1.54-5.43-2.16-9.21l-.12-.04.08-.21Z"/>
      <path class="cls-1" d="M442.6,305.97v-38.72c0-19.3-10.3-28.95-30.89-28.95h-41.68v115.48l48.05-11.45c16.34-3.81,24.52-15.93,24.52-36.36Z"/>
      <path class="cls-5" d="M558.52,440.44s.33.71.89,1.92c-.05-.76-.33-1.41-.89-1.92Z"/>
      <path class="cls-5" d="M443.12,487.77h-.52c.19.26.36.51.52.75v-.75Z"/>
      <path class="cls-5" d="M430.2,494.2s4.99-.13,12.4-.64v-10.97c-7.06,4.16-11.67,8.12-12.4,11.6Z"/>
      <path class="cls-5" d="M550.47,444.68l1.96,3.03c-1.21,1.66-1.85,3.02-1.94,4.1,8.6-10.44,8.02-11.36,8.02-11.36,0,0-1.9.52-5.22,1.48l1.09,1.41-3.92,1.35Z"/>
      <path class="cls-4" d="M449.31,536.57c-3.53-.25-5.45-2.03-6.71-5.14v10.21c0,22-8.18,32.99-24.52,32.99h-48.05v-156.21l50.99-13.47c9.67-3.02,16.09-.65,19.26,7.1.44,1.36.93,2.91,1.31,4.3,0,.02,0,.04.01.06h0c.13.48.25.93.35,1.35h-.09c.49,2.74.73,5.88.73,9.43v60.6h.52v.75c-.16-.24-.33-.49-.52-.75v5.79c3.56-.24,7.68-.57,12.08-1.02,13.55-1.38,82.9-25.18,95.06-39.82.26-.31.51-.61.75-.91.1-1.08.74-2.44,1.94-4.1l-1.96-3.03,3.92-1.35-1.09-1.41-6.75-8.69h1.96l-1.96-7.07c0-2.69,1.3-5.61,3.92-8.75-1.31,0-1.96-.45-1.96-1.35,0-14.59-13.08-25.13-39.23-31.65l-3.16-1.9v-5.63c15.45-9.29,26-18.06,31.64-26.29h2.36v-3.97c1.67-3.32,2.51-6.55,2.51-9.69l-2.51-.86v-1.83h.55c0-2.24.65-4.15,1.96-5.72l-1.96-3.03c1.3,0,2.61-2.36,3.92-7.07l-3.92-1.35c0-1.12.65-1.68,1.96-1.68,0-1.57-1.31-3.92-3.92-7.07l3.92-1.35c0-2.24-.66-4.15-1.96-5.72l1.96-8.75v-1.35c0-1.79-1.31-2.8-3.92-3.03.98-2.02,2.28-8.19,3.92-18.52-1.31,0-1.96-1.46-1.96-4.38v-4.38c0-1.57,1.3-2.47,3.92-2.69-.98-4.93-2.94-7.41-5.88-7.41l1.96-7.07v-7.07l-1.96-7.41c1.3,0,1.96-.45,1.96-1.35s-.66-1.35-1.96-1.35c0-10.72-1.86-18.71-5.58-23.99-11.06-22.01-57.19-30.89-57.19-30.89h-94.63c-1.96-.67-3.76-1.57-5.39-2.69h-7.85c-2.73,0-5.45-.06-8.18-.16-9.56,20.89-28.06,42.49-53.11,59.71-17.21,11.83-35.25,20.02-52.29,24.46-1.54,4.21-2.91,11.21-4.1,21.03l3.92,5.72c0,.9-.66,2.25-1.96,4.04l1.96,3.03c0,6.29-.66,14.48-1.96,24.58,0,1.98,1.25,10.23,3.77,24.7v.89c-2.52.1-3.77,2.56-3.77,7.4,0,2.42,1.26,5.16,3.77,8.22v.19h-1.81c0,2.37.6,5.98,1.81,10.82v1.2l-1.81,6.83,1.81,2.48v.22c-1.2.04-1.81.48-1.81,1.34v3.03c0,1.37.61,2.26,1.81,2.7v2.7c-1.26,1.11-2.51,1.66-3.77,1.66,0,1.13.65,2.58,1.96,4.38-1.31,6.51-1.96,11.78-1.96,15.82v3.03c0,1.87,1.26,4.27,3.77,7.22v10.94c-2.51,2.15-3.77,4.63-3.77,7.43,1.46,0,2.71.12,3.77.35v3.26c-.56-.17-1.17-.36-1.81-.58-1.31,0-2.62,1.46-3.92,4.38,1.3,1.57,1.96,3.48,1.96,5.72v14.14l1.96,3.03,1.81-.81v7.35c-2.3,1.85-4.21,6.84-5.73,15l1.96,7.07c-1.31,0-1.96.45-1.96,1.35,0,2.92,1.3,6.29,3.92,10.1l-1.96,8.75v10.1l1.96,2.69c.7,0,1.3-.07,1.81-.2v4.15c-2.51,3.19-3.77,5.69-3.77,7.5l1.96,7.41c-1.64,12.57-2.94,19.75-3.92,21.55,1.3,1.57,1.96,3.48,1.96,5.72v9.43h-42.17v51.51h42.66c.98,1.35,2.12,2.02,3.43,2.02l3.92-1.35c0,1.79,4.57,3.25,13.73,4.38l3.92-1.35c35.3.89,56.22,1.35,62.76,1.35,4.24,0,8.83-1.46,13.73-4.38h9.81l9.81,1.35c0-.9.65-1.35,1.96-1.35l3.92,1.35,3.92-1.35c0,.89.65,1.35,1.96,1.35h3.92l3.92-1.35c0,2.02,3.26,3.03,9.81,3.03,2.94,0,5.55-.56,7.85-1.68l11.77,1.68c8.5,0,16.99-.56,25.5-1.68l9.81,1.68,7.85-1.68,3.92,1.68,3.92-1.68-1.47-2.02h2.45c3.59,2.47,7.19,3.7,10.79,3.7h13.73c19.61-9.87,29.42-17.05,29.42-21.55,7.05-6.52,11.85-13.89,14.4-22.11h.83v-3c.17-.72.33-1.44.47-2.16,0-1.09-.16-2.1-.47-3.03v-5.55c.31-.93.47-1.88.47-2.86v-1.68l-.47-.64v-5.45c1.46-.72,2.93-2.5,4.39-5.35-1.31-6.51-1.96-11.78-1.96-15.82v-18.52h3.92v-1.35l-1.96-8.75c1.3-2.02,1.96-3.48,1.96-4.38,0-1.49-1.19-5.03-3.55-10.56-11.85,6.08-24.23,12.01-31.87,14.95-17.98,6.92-58.3,17.67-65.75,17.13ZM370.03,238.3h41.68c20.59,0,30.89,9.65,30.89,28.95v38.72c0,20.43-8.18,32.55-24.52,36.36l-48.05,11.45v-115.48Z"/>
      <path class="cls-9" d="M234.78,216.29l-18.92,3.01c-.33.05-.66.05-.98-.01.32.06.65.07.98.01l18.92-3.01c33.75-4.51,60.19-20.14,78.33-46.1,0,0,0,0,0,0-18.13,25.97-44.58,41.6-78.33,46.11Z"/>
      <path class="cls-9" d="M440.64,417.74h1.23c-.08-.46-.17-.91-.27-1.35h-.97v1.35Z"/>
      <path class="cls-2" d="M573.59,464.22c2.36-12.18-9.01-16.29-12.05-17.16,2.42,5.42,5.74,13.17,7.82,19.27.63,1.84,1.29,3.21,1.95,4.24l.49.22-.13.3c3.01,4.15,5.98,1.64,6.09,3.06.13,1.76,2.88,8.36,1.32,11.6,1.17,2.13,2.45,4.71,3.73,7.77,4.59,10.97,3.25,12.15,5.89,19.91,2.64,7.77,18.8,17.18,18.8,17.18,0,0,.58-16.36-4.03-36.26-4.61-19.9-29.86-30.13-29.86-30.13Z"/>
      <path class="cls-5" d="M573.13,530.74s3.5-31.61-.89-40.09c-4.73,2.84-11.49,6.59-18.87,10.48,2.79,6.84,10.58,24.18,19.76,29.6Z"/>
      <path class="cls-6" d="M550.49,451.81c-.24.3-.49.6-.75.91-12.16,14.64-81.52,38.45-95.06,39.82-4.4.45-8.51.78-12.08,1.02-7.41.51-12.4.64-12.4.64,0,0,7.18,9.82,9.29,22.17.34,2,.63,3.87.92,5.59l4.37-11.81,9.47,7.81,5.3-10.83,7.62,6.56,4.25-10.38,8.66,7.45,5.34-12.15,8.03,7.57,3.54-10.56,8.36,6.86,3.37-12.44,9.12,7.18,2.8-12.14,9.69,6.93,2.62-12.68,10.68,6.63,3.22-12.91,11.38,5.52,1.15-13.34,10.4,4.65c-4.61-9.36-11.33-23.69-8.97-23.02,0,0,.28.06.74.19-.85-1.91-1.59-3.53-2.13-4.69-.56-1.21-.89-1.92-.89-1.92,0,0,.57.92-8.02,11.36Z"/>
      <path class="cls-6" d="M569.76,469.88l1.54.69c-.66-1.03-1.32-2.41-1.95-4.24-2.08-6.1-5.4-13.85-7.82-19.27-.46-.13-.74-.19-.74-.19-2.36-.67,4.37,13.66,8.97,23.02Z"/>
      <path class="cls-6" d="M570.95,472.27l-10.09-4.52-1.15,13.41-11.72-5.68-3.28,13.14-10.59-6.57-2.65,12.86-9.75-6.97-2.83,12.27-9.2-7.25-3.38,12.49-8.48-6.96-3.6,10.75-8.21-7.74-5.3,12.05-8.62-7.41-4.25,10.38-7.74-6.66-5.28,10.79-9.29-7.66-3.62,9.78-1.47-.54c.62,3.77,1.2,6.87,2.16,9.21,1.27,3.11,3.18,4.89,6.71,5.14,7.45.53,47.77-10.22,65.75-17.13,7.64-2.94,20.02-8.87,31.87-14.95,2.17-1.12,4.33-2.24,6.44-3.35-.71-1.75-1.1-2.81-1.1-2.81,11.79-5.55,17.41-9.75,17.41-9.75,1.06.04,1.9.8,2.57,2.08,3.86-2.32,6.36-4.04,6.75-4.75.03-.05.05-.11.08-.16-3.03-5.52-5.37-8.03-5.37-8.03,0,0-1.14-2.21-2.75-5.44ZM449.08,526.81c-1.3.54-2.79-.07-3.34-1.37-.54-1.3.07-2.79,1.37-3.34s2.79.07,3.34,1.37c.54,1.3-.07,2.79-1.37,3.34ZM462.19,524.39c-1.3.54-2.79-.07-3.33-1.37-.54-1.3.07-2.79,1.37-3.34,1.3-.54,2.79.07,3.34,1.37.54,1.3-.07,2.79-1.37,3.34ZM475.29,521.97c-1.3.54-2.79-.07-3.33-1.37-.54-1.3.07-2.79,1.37-3.34,1.3-.54,2.79.07,3.34,1.37.54,1.3-.07,2.79-1.37,3.34ZM488.4,519.55c-1.3.54-2.79-.07-3.34-1.37-.54-1.3.07-2.79,1.37-3.34,1.3-.54,2.79.07,3.33,1.37.54,1.3-.07,2.79-1.37,3.34ZM502.64,515.43c-1.3.54-2.79-.07-3.34-1.37-.54-1.3.07-2.79,1.37-3.34s2.79.07,3.33,1.37c.54,1.3-.07,2.79-1.37,3.34ZM516.35,511.52c-1.3.54-2.79-.07-3.34-1.37-.54-1.3.07-2.79,1.37-3.34,1.3-.54,2.79.07,3.34,1.37.54,1.3-.07,2.79-1.37,3.34ZM529.19,505.53c-1.3.54-2.79-.07-3.33-1.37-.54-1.3.07-2.79,1.37-3.34,1.3-.54,2.79.07,3.34,1.37.54,1.3-.07,2.79-1.37,3.34ZM541.59,498.49c-1.3.54-2.79-.07-3.34-1.37-.54-1.3.07-2.79,1.37-3.34,1.3-.54,2.79.07,3.34,1.37.54,1.3-.07,2.79-1.37,3.34ZM555.34,490.28c-1.3.54-2.79-.07-3.33-1.37-.54-1.3.07-2.79,1.37-3.34,1.3-.54,2.79.07,3.33,1.37.54,1.3-.07,2.79-1.37,3.34ZM569.62,481.84c-1.3.54-2.79-.07-3.33-1.37-.54-1.3.07-2.79,1.37-3.34s2.79.07,3.33,1.37c.54,1.3-.07,2.79-1.37,3.34Z"/>
      <path class="cls-6" d="M577.75,474.14c-.11-1.42-3.08,1.1-6.09-3.06l-.56,1.25-.15-.07c1.61,3.23,2.75,5.44,2.75,5.44,0,0,2.34,2.52,5.37,8.03,1.57-3.24-1.19-9.84-1.32-11.6Z"/>
      <path class="cls-6" d="M569.67,488.57s-5.61,4.19-17.41,9.75c0,0,.39,1.06,1.1,2.81,7.39-3.89,14.14-7.64,18.87-10.48-.66-1.28-1.5-2.04-2.57-2.08Z"/>
      <path class="cls-9" d="M571.8,470.78l-.49-.22c.12.18.23.36.35.52l.13-.3Z"/>
      <path class="cls-9" d="M440.32,522.17l.12.04c-.01-.09-.03-.17-.04-.26l-.08.21Z"/>
      <path class="cls-9" d="M559.37,465.22l-1.15,13.34-11.38-5.52-3.22,12.91-10.68-6.63-2.62,12.68-9.69-6.93-2.8,12.14-9.12-7.18-3.37,12.44-8.36-6.86-3.54,10.56-8.03-7.57-5.34,12.15-8.66-7.45-4.25,10.38-7.62-6.56-5.3,10.83-9.47-7.81-4.37,11.81c.01.09.03.17.04.26l1.47.54,3.62-9.78,9.29,7.66,5.28-10.79,7.74,6.66,4.25-10.38,8.62,7.41,5.3-12.05,8.21,7.74,3.6-10.75,8.48,6.96,3.38-12.49,9.2,7.25,2.83-12.27,9.75,6.97,2.65-12.86,10.59,6.57,3.28-13.14,11.72,5.68,1.15-13.41,10.09,4.52c-.37-.75-.77-1.55-1.18-2.39l-10.4-4.65Z"/>
      <path class="cls-9" d="M570.95,472.27l.15.07.56-1.25c-.12-.16-.23-.33-.35-.52l-1.54-.69c.41.84.81,1.64,1.18,2.39Z"/>
      <path class="cls-3" d="M447.11,522.11c-1.3.54-1.91,2.04-1.37,3.34.54,1.3,2.04,1.91,3.34,1.37s1.91-2.04,1.37-3.34c-.54-1.3-2.04-1.91-3.34-1.37Z"/>
      <path class="cls-3" d="M460.22,519.69c-1.3.54-1.91,2.04-1.37,3.34.54,1.3,2.04,1.91,3.33,1.37s1.91-2.04,1.37-3.34c-.54-1.3-2.04-1.91-3.34-1.37Z"/>
      <path class="cls-3" d="M473.32,517.27c-1.3.54-1.91,2.04-1.37,3.34.54,1.3,2.04,1.91,3.33,1.37,1.3-.54,1.91-2.04,1.37-3.34-.54-1.3-2.04-1.91-3.34-1.37Z"/>
      <path class="cls-3" d="M486.43,514.85c-1.3.54-1.91,2.04-1.37,3.34.54,1.3,2.04,1.91,3.34,1.37,1.3-.54,1.91-2.04,1.37-3.34-.54-1.3-2.04-1.91-3.33-1.37Z"/>
      <path class="cls-3" d="M500.67,510.72c-1.3.54-1.91,2.04-1.37,3.34.54,1.3,2.04,1.91,3.34,1.37,1.3-.54,1.91-2.04,1.37-3.34-.54-1.3-2.04-1.91-3.33-1.37Z"/>
      <path class="cls-3" d="M514.38,506.82c-1.3.54-1.91,2.04-1.37,3.34.54,1.3,2.04,1.91,3.34,1.37,1.3-.54,1.91-2.04,1.37-3.34-.54-1.3-2.04-1.91-3.34-1.37Z"/>
      <path class="cls-3" d="M527.22,500.83c-1.3.54-1.91,2.04-1.37,3.34.54,1.3,2.04,1.91,3.33,1.37,1.3-.54,1.91-2.04,1.37-3.34-.54-1.3-2.04-1.91-3.34-1.37Z"/>
      <path class="cls-3" d="M539.62,493.79c-1.3.54-1.91,2.04-1.37,3.34.54,1.3,2.04,1.91,3.34,1.37,1.3-.54,1.91-2.04,1.37-3.34-.54-1.3-2.04-1.91-3.34-1.37Z"/>
      <path class="cls-3" d="M553.37,485.58c-1.3.54-1.91,2.04-1.37,3.34.54,1.3,2.04,1.91,3.33,1.37,1.3-.54,1.91-2.04,1.37-3.34-.54-1.3-2.04-1.91-3.33-1.37Z"/>
      <path class="cls-3" d="M567.65,477.14c-1.3.54-1.91,2.04-1.37,3.34.54,1.3,2.04,1.91,3.33,1.37,1.3-.54,1.91-2.04,1.37-3.34-.54-1.3-2.04-1.91-3.33-1.37Z"/>
      <path class="cls-9" d="M206.53,122c7-.41,13.65-2.5,19.47-5.95-5.82,3.45-12.46,5.54-19.46,5.95l-13.19.77c-3.08.18-6.08,1.35-8.28,3.42,2.19-2.07,5.19-3.24,8.27-3.42l13.19-.77Z"/>
      <path class="cls-9" d="M212.74,217.51c.37.94,1.19,1.59,2.14,1.77.32.06.65.07.98.01l18.92-3.01c33.75-4.51,60.2-20.14,78.33-46.11,2.91-4.16,5.61-8.58,8.09-13.28l9.59-16.59c.67-1.17.44-2.65-.55-3.55l-61.23-55.82c-3.04-3.15-7.26-4.35-11.21-3.68-1.01.17-1.98.49-2.89.93.91-.43,1.87-.75,2.88-.92,3.95-.67,8.18.53,11.21,3.68l45.03,41.05-7.69,13.29c-17.92,33.96-47.25,54.15-86.42,59.39l-15.17,2.41-2.04-5.23,6.9,17.66s0,0,0,0l3.12,7.98Z"/>
      <path class="cls-7" d="M219.93,194.68c39.17-5.24,68.5-25.43,86.42-59.39l7.69-13.29-45.03-41.05c-3.04-3.15-7.26-4.35-11.21-3.68-1.01.17-1.98.49-2.88.92-2.72,1.31-4.89,3.69-6.16,6.5l-5.45,12.04c-3.3,7.3-8.49,13.38-14.86,17.76-.42.29-.85.54-1.27.81-.39.25-.77.51-1.17.75-5.82,3.45-12.47,5.54-19.47,5.95l-13.19.77c-3.08.18-6.08,1.35-8.27,3.42-.73.69-1.37,1.48-1.9,2.36-2.04,3.44-2.44,7.82-.59,11.78l20.14,51.53,2.04,5.23,15.17-2.41Z"/>
      <path class="cls-8" d="M359.89,168.79c9.3-20.32,10.15-39.98.33-54.27-11.16-16.24-21.07-3.68-36.32,16.47l6.34,5.77c1,.91,1.22,2.38.55,3.55l-9.59,16.59c-2.48,4.69-5.18,9.12-8.09,13.28-18.13,25.96-44.58,41.59-78.33,46.1l-18.92,3.01c-.33.05-.67.05-.98-.01-.95-.18-1.77-.83-2.14-1.77l-3.12-7.98s0,0,0,0c-24.29,7.02-39.56,11.77-28.4,28.01,12.98,18.89,41.38,23.73,73.27,15.42,17.04-4.44,35.07-12.63,52.29-24.46,25.05-17.22,43.55-38.82,53.11-59.71Z"/>
    </g>
  </g>
</svg>