<svg width="320" height="128" viewBox="0 0 320 128" fill="none" xmlns="http://www.w3.org/2000/svg">
<g clip-path="url(#clip0_9_11)">
<path d="M57.2728 0.00396729C72.2711 -0.042136 87.5623 0.23986 101.139 7.93365C101.391 8.07583 101.643 8.21881 101.903 8.3653C105.689 10.5425 108.797 13.1431 111.839 16.3839C112.347 16.9187 112.872 17.4356 113.399 17.9493C122.988 27.4973 127.114 42.9524 127.785 56.5391C127.973 63.1946 127.83 69.8683 126.9 76.459C126.85 76.8127 126.801 77.1669 126.749 77.5313C124.964 89.6021 119.885 100.376 112.007 109.214C111.8 109.448 111.594 109.682 111.38 109.923C109.713 111.766 107.958 113.32 105.994 114.789C105.551 115.122 105.551 115.123 105.098 115.462C100.627 118.74 95.7811 121.091 90.6732 123.005C90.4037 123.106 90.1343 123.208 89.8568 123.313C77.8961 127.717 65.5072 127.942 53.014 127.877C51.1469 127.869 49.2795 127.868 47.4124 127.866C43.8949 127.862 40.3766 127.852 36.8587 127.839C32.8461 127.824 28.8332 127.817 24.8206 127.811C16.583 127.797 8.34526 127.775 0.107727 127.746C0.0721008 125.986 0.0503161 124.226 0.0315552 122.466C0.0214397 121.975 0.0117037 121.483 0.00128174 120.978C-0.0361538 116.268 0.754293 112.061 2.82452 107.894C3.03755 107.455 3.03785 107.455 3.25519 107.007C6.49095 100.431 10.758 94.9049 15.806 89.8194C16.0409 89.5803 16.2758 89.3417 16.5179 89.0958C21.4495 84.2869 27.125 80.3262 32.7112 76.459C32.9503 76.2923 33.1896 76.1256 33.4359 75.9542C36.0272 74.157 38.6859 72.5587 41.4407 71.0723C41.8613 70.8452 41.8617 70.8448 42.2903 70.6133C44.2804 69.5639 44.2808 69.5635 45.1888 69.5635C44.5597 71.2736 43.4502 72.3288 42.1956 73.5235C41.9799 73.7325 41.7639 73.9413 41.5413 74.1563C40.1898 75.4536 38.8048 76.6962 37.39 77.9141C35.3373 79.6823 33.4143 81.5729 31.4964 83.504C30.3067 84.7015 29.1107 85.8717 27.8558 86.9913C21.8432 92.6056 14.4296 101.153 13.1653 109.909C13.0903 112.06 13.2172 113.556 14.0696 115.517C15.8906 117.519 17.4953 118.216 20.0648 118.324C20.6518 118.329 21.2394 118.333 21.8265 118.334C22.148 118.336 22.4698 118.338 22.8011 118.34C23.8648 118.346 24.9287 118.349 25.9925 118.352C26.7356 118.354 27.4789 118.357 28.222 118.359C29.7821 118.364 31.3425 118.366 32.9026 118.367C34.8893 118.369 36.876 118.38 38.8626 118.393C40.3995 118.401 41.9368 118.403 43.4739 118.403C44.2052 118.405 44.937 118.408 45.6683 118.414C53.8329 118.473 61.3717 116.894 67.6292 110.857C70.9885 107.085 71.9138 101.831 71.9046 96.8057C71.6864 88.3909 66.4035 81.258 60.9144 75.6661C60.1138 74.9054 59.2984 74.1704 58.472 73.4424C58.1707 73.1732 57.8695 72.9034 57.5589 72.626C53.8795 69.3993 49.939 66.6032 45.9437 63.8536C16.0954 43.2993 16.0948 43.299 12.7737 28.7579C11.8763 21.9597 12.3506 15.7436 16.2083 10.0889C23.2051 1.20547 33.6085 -0.0357259 43.7884 0.00494385C44.5743 0.00406922 45.3603 0.00265298 46.1458 0.0010376C47.7863 -0.000855588 49.4266 0.00178959 51.0667 0.00787354C53.1352 0.0151858 55.2042 0.0114379 57.2728 0.00396729ZM63.8509 9.46295C63.1332 9.47105 62.4153 9.47553 61.6976 9.4776C60.1859 9.47915 58.6747 9.48287 57.1634 9.4942C55.2144 9.51135 53.2647 9.52657 51.3157 9.53131C49.4143 9.53541 47.5126 9.5409 45.6116 9.54987C45.0626 9.55254 45.0624 9.5531 44.5247 9.55573C43.4822 9.56003 42.4389 9.56486 41.3968 9.5733C40.9118 9.57765 40.9115 9.57787 40.4359 9.58209C35.9073 9.59999 31.9167 10.2214 28.515 13.6514C25.993 16.6264 25.6528 19.1891 25.7191 23.17C26.6307 32.7661 34.0171 40.4239 40.636 46.21C41.9989 47.3577 43.34 48.5195 44.6566 49.7266C48.7996 53.5269 53.0935 57.0842 57.4905 60.5401C63.8785 65.5597 70.3534 70.5371 75.597 76.9522L76.5853 78.1837C79.1344 81.2561 81.0301 84.4993 82.6849 88.1915L83.0257 88.9581C85.483 94.2944 85.4958 101.797 83.8704 107.463L83.4534 108.782C83.0501 110.07 82.6329 111.343 82.1693 112.607L81.8187 113.523C91.5544 109.669 99.6969 103.925 104.964 94.0372L105.567 92.837C111.825 80.3671 113.574 64.6441 111.456 50.752L111.201 49.3077C110.412 44.5481 109.379 40.2459 107.503 35.8399C103.756 27.2914 98.0296 19.0989 89.4661 15.6915C90.2651 17.379 90.3755 18.8152 90.3812 20.6671L90.3714 21.6983C90.3835 23.0071 90.3795 24.3001 90.2708 25.6046C87.594 36.5646 79.0504 44.0832 70.8782 50.462C70.5083 50.7499 70.5075 50.75 70.1448 51.0323C67.7343 52.9061 65.3187 54.7736 62.8997 56.6348L63.7054 55.3419C64.064 54.4295 64.0637 54.4288 64.5101 53.6172C65.7174 53.1863 65.7176 53.1866 66.6341 52.21C67.1855 51.5481 67.7368 50.8858 68.2894 50.2256C68.4959 49.9796 68.6967 49.7398 68.8968 49.501C69.5113 48.7651 70.1293 48.0335 70.7591 47.3126C76.8021 40.4774 82.712 33.1157 83.5521 23.2891C83.6273 19.4204 82.697 16.7936 80.2083 13.9678C75.4454 9.87135 69.6938 9.40142 63.8509 9.46295Z" fill="#00241F"/>
<path d="M76.988 26.0351C77.3905 26.4661 77.3905 26.4661 77.3905 27.8668C76.4027 35.1006 69.6119 42.0531 64.4021 46.2455C64.1139 46.4739 63.8257 46.7023 63.5287 46.9376C62.9499 47.3988 62.3718 47.8612 61.7946 48.3245C61.5125 48.5512 61.2303 48.7779 60.9393 49.0115C59.7539 50.0174 58.6562 51.1177 57.5634 52.2365C57.3319 52.4076 57.1005 52.5791 56.8622 52.7558C55.6547 52.3248 55.6547 52.3249 54.9724 51.3431C53.7822 49.8377 52.4796 49.1279 50.8748 48.2034C47.3914 46.1024 44.4752 43.6092 41.5666 40.6883C41.3666 40.4902 41.1665 40.2921 40.9604 40.088C36.3347 35.4733 36.3347 35.4733 35.7049 32.1765C35.9313 31.2068 35.9313 31.2068 36.7222 30.5655C38.3131 29.717 39.8905 29.2906 41.6169 28.8634C41.9836 28.7716 42.3507 28.6797 42.7287 28.585C47.0827 27.5372 51.4866 26.866 55.9066 26.2308C57.2265 26.0406 58.5451 25.8413 59.8638 25.6412C72.8417 23.723 72.8417 23.723 76.988 26.0351Z" fill="#00A991"/>
<path d="M56.0571 95.8534C59.5059 97.2847 62.3923 99.5038 65.315 101.887C65.7135 102.172 66.112 102.456 66.5225 102.749C66.3012 105.236 65.5686 106.87 63.8434 108.582C60.1145 111.781 55.585 113.673 50.8055 113.621C50.4952 113.621 50.1844 113.621 49.8644 113.622C48.8473 113.621 47.8305 113.614 46.8134 113.608C46.1045 113.606 45.3957 113.604 44.6865 113.604C42.8276 113.601 40.9692 113.592 39.1103 113.583C37.2108 113.574 35.3112 113.57 33.4116 113.565C29.6897 113.556 25.9677 113.542 22.2457 113.523C22.5527 111.884 22.5527 111.884 23.4124 111.126C26.6798 109.096 29.977 107.841 33.5916 106.708C40.0934 104.577 45.7427 101.137 51.2269 96.877C52.8261 95.7483 54.1746 95.3281 56.0571 95.8534Z" fill="#00A991"/>
<path d="M51.0257 87.0452C52.032 87.2339 52.032 87.2339 52.7613 87.7455C53.4215 88.8242 53.4416 89.4147 53.2395 90.6817C52.5854 91.6782 52.5854 91.6782 51.6295 92.4057C50.3716 92.594 50.3716 92.594 49.2144 92.4057C48.4093 91.1127 48.4093 91.1127 48.4846 90.062C48.9733 88.4118 49.3476 87.3598 51.0257 87.0452Z" fill="#006658"/>
<path d="M53.6421 74.7356C54.6987 74.8972 54.6987 74.8972 55.6546 75.1666C55.9062 76.163 55.9062 76.163 56.0572 77.3215C55.6587 77.9615 55.6587 77.9615 55.2521 78.6144C54.588 78.4722 53.9238 78.3299 53.2396 78.1834C52.988 76.9444 52.988 76.9444 52.837 75.5975C53.1027 75.3131 53.3684 75.0287 53.6421 74.7356Z" fill="#006658"/>
<path d="M58.4722 90.6818C59.2692 90.6818 60.0662 90.6818 60.8873 90.6818C61.0201 91.3929 61.153 92.104 61.2898 92.8366C60.1326 93.106 60.1326 93.106 58.8747 93.2676C58.6091 92.9832 58.3434 92.6987 58.0697 92.4057C58.2206 91.4898 58.2206 91.4898 58.4722 90.6818Z" fill="#006658"/>
<path d="M58.0698 81.2003C58.8667 81.4136 58.8667 81.4136 59.6798 81.6312C59.547 82.2001 59.4142 82.769 59.2773 83.3551C58.746 83.2129 58.2147 83.0707 57.6672 82.9242C57.8001 82.3553 57.9329 81.7864 58.0698 81.2003Z" fill="#006658"/>
</g>
<path d="M165.901 47.672C163.501 47.672 161.357 47.256 159.469 46.424C157.581 45.56 156.093 44.264 155.005 42.536C153.917 40.776 153.373 38.552 153.373 35.864V34.952H156.445V35.864C156.445 38.968 157.325 41.272 159.085 42.776C160.877 44.248 163.149 44.984 165.901 44.984C168.685 44.984 170.829 44.344 172.333 43.064C173.837 41.752 174.589 40.088 174.589 38.072C174.589 36.728 174.253 35.656 173.581 34.856C172.941 34.024 172.029 33.368 170.845 32.888C169.693 32.376 168.349 31.928 166.813 31.544L163.741 30.776C161.917 30.296 160.285 29.704 158.845 29C157.405 28.264 156.269 27.32 155.437 26.168C154.605 24.984 154.189 23.48 154.189 21.656C154.189 19.832 154.653 18.248 155.581 16.904C156.541 15.56 157.853 14.536 159.517 13.832C161.181 13.096 163.117 12.728 165.325 12.728C167.533 12.728 169.517 13.112 171.277 13.88C173.069 14.648 174.477 15.784 175.501 17.288C176.557 18.76 177.085 20.616 177.085 22.856V25.112H174.013V22.856C174.013 21.096 173.629 19.672 172.861 18.584C172.093 17.496 171.053 16.696 169.741 16.184C168.429 15.672 166.957 15.416 165.325 15.416C162.989 15.416 161.053 15.96 159.517 17.048C158.013 18.104 157.261 19.64 157.261 21.656C157.261 23 157.565 24.072 158.173 24.872C158.813 25.672 159.693 26.312 160.813 26.792C161.965 27.272 163.309 27.704 164.845 28.088L167.917 28.856C169.677 29.272 171.293 29.832 172.765 30.536C174.237 31.208 175.421 32.152 176.317 33.368C177.213 34.552 177.661 36.12 177.661 38.072C177.661 40.024 177.165 41.72 176.173 43.16C175.213 44.6 173.853 45.72 172.093 46.52C170.333 47.288 168.269 47.672 165.901 47.672ZM191.342 47V16.184H180.11V13.4H205.646V16.184H194.414V47H191.342ZM211.112 47V13.4H231.416V16.184H214.184V28.76H230.072V31.544H214.184V44.216H231.608V47H211.112ZM238.347 47V13.4H258.315V16.184H241.419V28.76H256.923V31.544H241.419V47H238.347ZM259.469 47L270.461 13.4H275.933L286.925 47H283.709L280.829 38.072H265.565L262.685 47H259.469ZM266.429 35.288H279.965L273.485 15.224H272.909L266.429 35.288ZM292.394 47V13.4H298.49L312.218 45.176H312.794V13.4H315.866V47H309.77L296.042 15.176H295.466V47H292.394Z" fill="#006658"/>
<path d="M135.226 108V105.216H140.026V77.184H135.226V74.4H147.994C152.378 74.4 155.786 75.52 158.218 77.76C160.682 79.968 161.914 83.424 161.914 88.128V94.32C161.914 99.024 160.682 102.48 158.218 104.688C155.786 106.896 152.378 108 147.994 108H135.226ZM143.098 105.216H147.994C151.514 105.216 154.202 104.368 156.058 102.672C157.914 100.976 158.842 98.24 158.842 94.464V87.984C158.842 84.176 157.914 81.44 156.058 79.776C154.202 78.08 151.514 77.232 147.994 77.232H143.098V105.216ZM180.687 108.672C176.751 108.672 173.615 107.52 171.279 105.216C168.943 102.88 167.775 99.472 167.775 94.992V87.408C167.775 82.928 168.943 79.536 171.279 77.232C173.615 74.896 176.751 73.728 180.687 73.728C184.623 73.728 187.759 74.896 190.095 77.232C192.431 79.536 193.599 82.928 193.599 87.408V94.992C193.599 99.472 192.431 102.88 190.095 105.216C187.759 107.52 184.623 108.672 180.687 108.672ZM180.687 105.888C183.823 105.888 186.239 104.944 187.935 103.056C189.663 101.168 190.527 98.512 190.527 95.088V87.312C190.527 83.888 189.663 81.232 187.935 79.344C186.239 77.456 183.823 76.512 180.687 76.512C177.583 76.512 175.167 77.456 173.439 79.344C171.711 81.232 170.847 83.888 170.847 87.312V95.088C170.847 98.512 171.711 101.168 173.439 103.056C175.167 104.944 177.583 105.888 180.687 105.888ZM200.8 108V74.4H213.952C216.032 74.4 217.856 74.752 219.424 75.456C221.024 76.16 222.272 77.184 223.168 78.528C224.096 79.84 224.56 81.44 224.56 83.328V83.808C224.56 86.08 224.016 87.872 222.928 89.184C221.84 90.464 220.56 91.312 219.088 91.728V92.304C220.208 92.336 221.152 92.688 221.92 93.36C222.688 94.032 223.072 95.104 223.072 96.576V108H220V96.912C220 95.888 219.712 95.104 219.136 94.56C218.592 94.016 217.76 93.744 216.64 93.744H203.872V108H200.8ZM203.872 90.96H213.664C216.16 90.96 218.08 90.384 219.424 89.232C220.8 88.048 221.488 86.368 221.488 84.192V83.952C221.488 81.776 220.816 80.112 219.472 78.96C218.16 77.776 216.224 77.184 213.664 77.184H203.872V90.96ZM242.937 108.672C239.001 108.672 235.865 107.52 233.529 105.216C231.193 102.88 230.025 99.472 230.025 94.992V87.408C230.025 82.928 231.193 79.536 233.529 77.232C235.865 74.896 239.001 73.728 242.937 73.728C246.873 73.728 250.009 74.896 252.345 77.232C254.681 79.536 255.849 82.928 255.849 87.408V94.992C255.849 99.472 254.681 102.88 252.345 105.216C250.009 107.52 246.873 108.672 242.937 108.672ZM242.937 105.888C246.073 105.888 248.489 104.944 250.185 103.056C251.913 101.168 252.777 98.512 252.777 95.088V87.312C252.777 83.888 251.913 81.232 250.185 79.344C248.489 77.456 246.073 76.512 242.937 76.512C239.833 76.512 237.417 77.456 235.689 79.344C233.961 81.232 233.097 83.888 233.097 87.312V95.088C233.097 98.512 233.961 101.168 235.689 103.056C237.417 104.944 239.833 105.888 242.937 105.888ZM274.042 108.672C271.642 108.672 269.498 108.256 267.61 107.424C265.722 106.56 264.234 105.264 263.146 103.536C262.058 101.776 261.514 99.552 261.514 96.864V95.952H264.586V96.864C264.586 99.968 265.466 102.272 267.226 103.776C269.018 105.248 271.29 105.984 274.042 105.984C276.826 105.984 278.97 105.344 280.474 104.064C281.978 102.752 282.73 101.088 282.73 99.072C282.73 97.728 282.394 96.656 281.722 95.856C281.082 95.024 280.17 94.368 278.986 93.888C277.834 93.376 276.49 92.928 274.954 92.544L271.882 91.776C270.058 91.296 268.426 90.704 266.986 90C265.546 89.264 264.41 88.32 263.578 87.168C262.746 85.984 262.33 84.48 262.33 82.656C262.33 80.832 262.794 79.248 263.722 77.904C264.682 76.56 265.994 75.536 267.658 74.832C269.322 74.096 271.258 73.728 273.466 73.728C275.674 73.728 277.658 74.112 279.418 74.88C281.21 75.648 282.618 76.784 283.642 78.288C284.698 79.76 285.226 81.616 285.226 83.856V86.112H282.154V83.856C282.154 82.096 281.77 80.672 281.002 79.584C280.234 78.496 279.194 77.696 277.882 77.184C276.57 76.672 275.098 76.416 273.466 76.416C271.13 76.416 269.194 76.96 267.658 78.048C266.154 79.104 265.402 80.64 265.402 82.656C265.402 84 265.706 85.072 266.314 85.872C266.954 86.672 267.834 87.312 268.954 87.792C270.106 88.272 271.45 88.704 272.986 89.088L276.058 89.856C277.818 90.272 279.434 90.832 280.906 91.536C282.378 92.208 283.562 93.152 284.458 94.368C285.354 95.552 285.802 97.12 285.802 99.072C285.802 101.024 285.306 102.72 284.314 104.16C283.354 105.6 281.994 106.72 280.234 107.52C278.474 108.288 276.41 108.672 274.042 108.672ZM292.628 108V74.4H295.7V89.76H312.788V74.4H315.86V108H312.788V92.544H295.7V108H292.628Z" fill="#006658"/>
<defs>
<clipPath id="clip0_9_11">
<rect width="128" height="128" fill="white"/>
</clipPath>
</defs>
</svg>
